<svg class="logo" viewBox="0 0 190.5 34.4" xml:space="preserve" xmlns="http://www.w3.org/2000/svg"><g fill="#020203"><path d="M47.3 27h-4.4v-9.4c0-1.4 0-2.6-.3-3.5-.4-1.3-1.4-2.1-3.3-2.1-2.8 0-4.1 2.1-4.1 5.1V27h-4.4V8.4h4.4v2.4C36 9.2 38.1 8 40.9 8c2.1 0 3.9.6 5.1 2.3.9 1.2 1.2 2.6 1.2 6.2V27zM51.6 17.8c0-5.8 3.2-9.8 8.2-9.8 2.4 0 4.4 1.2 5.5 2.5v-2h4.4v26h-4.4V25c-1.2 1.4-3 2.4-5.5 2.4-4.9 0-8.2-4-8.2-9.6m9.1-6c-2.8 0-4.7 2.2-4.7 5.9s1.9 5.9 4.7 5.9c2.8 0 4.7-2.3 4.7-5.9.1-3.6-1.9-5.9-4.7-5.9M74.2 8.4h4.4v9.9c0 1.3 0 2.6.5 3.6.4 1 1.3 1.6 2.8 1.6 2.8 0 4-2.1 4-5.1v-10h4.4V27h-4.4v-2.4c-.9 1.6-2.9 2.8-5.5 2.8-1.9 0-3.5-.6-4.6-1.8-1.2-1.3-1.6-2.6-1.6-6.7V8.4zM110 22.7c0 1.2.2 1.6 1.2 1.6h.2v2.9c-.2 0-.8.2-2.1.2-1.7 0-2.9-.5-3.3-1.9-.7.9-2.2 2-5.5 2-3.6 0-6.5-1.8-6.5-5.8 0-1.4.4-2.5 1.1-3.3 1.1-1.4 3.1-2.1 5.5-2.5l4.1-.7c1-.2 1.2-.3 1.2-1v-.3c0-1.6-1-2.3-3.3-2.3-2.5 0-3.8 1.1-3.7 3.2l-4.2-.3c-.1-4.6 3.7-6.4 8.1-6.4 4.2 0 7.4 1.4 7.4 5.5v9.1zm-4.2-2.3v-2.3c-.7.2-1.2.4-2.5.7l-1.7.4c-2.1.4-3 1-3 2.5s1 2.5 3.2 2.5c2.3-.1 4-1.3 4-3.8M132.1 27h-4.4v-9.4c0-1.4 0-2.6-.3-3.5-.4-1.3-1.4-2.1-3.3-2.1-2.8 0-4.1 2.1-4.1 5.1V27h-4.4V8.4h4.4v2.4c.9-1.6 3-2.8 5.8-2.8 2.1 0 3.9.6 5.1 2.3.9 1.2 1.2 2.6 1.2 6.2V27zM147.8 27.1c-.9.2-2 .3-3.3.3-1.8 0-3.7-.4-4.7-1.6-.7-.9-.8-1.9-.8-3.7V11.9h-4V8.4h4V1.9l4.4-1v7.4h4.3v3.5h-4.3v9.5c0 1.1.2 1.6.5 1.9.4.4 1.1.5 1.9.5.8 0 1.5-.1 2-.2v3.6zM166.6 22.7c0 1.2.2 1.6 1.2 1.6h.2v2.9c-.2 0-.8.2-2.1.2-1.7 0-2.9-.5-3.3-1.9-.7.9-2.2 2-5.5 2-3.6 0-6.5-1.8-6.5-5.8 0-1.4.4-2.5 1.1-3.3 1.1-1.4 3.1-2.1 5.5-2.5l4.1-.7c1-.2 1.2-.3 1.2-1v-.3c0-1.6-1-2.3-3.3-2.3-2.5 0-3.8 1.1-3.7 3.2l-4.2-.3c-.1-4.6 3.7-6.4 8.1-6.4 4.2 0 7.4 1.4 7.4 5.5v9.1zm-4.3-2.3v-2.3c-.7.2-1.2.4-2.5.7l-1.7.4c-2.1.4-3 1-3 2.5s1 2.5 3.2 2.5c2.4-.1 4-1.3 4-3.8M175.9 18.5c.4 3.2 1.9 5.1 4.9 5.1 3.4 0 4.8-2.3 4.8-4.5 0-2-1-3.3-3-3.9-.9-.3-2.1-.3-3.3-.3h-1.8v-3.8h2.1c1.1 0 1.9 0 2.6-.2 1.8-.5 2.7-1.8 2.7-3.5 0-1.9-1.3-3.7-4.2-3.7-3.5 0-4.5 2.7-4.6 4.5l-4.1-.6c.1-4.1 3.2-7.6 9.1-7.6 5.6 0 8.7 2.8 8.7 6.7 0 3.2-2.1 5.1-4.1 6 2.2.8 4.9 2.5 4.9 6.6 0 4.6-3.5 8-9.6 8-6.4 0-9.2-3.3-9.6-8.3l4.5-.5zM25.5 5H21V.5h4.4V5zm0 22H21V8.4h4.4V27zM13.6 15.2c-.7-2-2.1-3.4-4.3-3.4-3 0-4.8 2.2-4.8 5.9s1.9 5.9 4.8 5.9c2.5 0 3.8-1.5 4.4-3.2l3.6 1.9c-.9 2-3.4 5.1-8.1 5.1C3.7 27.4 0 24 0 17.8 0 11.5 4 8 9.1 8c4.3 0 7 2.3 8.1 5.2l-3.6 2z"></path></g></svg>